<svg width="72" height="72" viewBox="0 0 72 72" fill="none" xmlns="http://www.w3.org/2000/svg">
<rect x="0.5" y="0.5" width="71" height="71" stroke="black"/>
<rect width="72" height="72" fill="black"/>
<path d="M8.76953 29.4486L14.9818 27.4814L25.1284 24.6859L22.9541 23.6505L17.3631 19.509L20.8834 16.2994L27.3027 23.6505L32.376 18.8878L35.275 14.7463L47.4924 19.509" stroke="#FFF200"/>
<path d="M25.1284 24.686L25.8532 28.9311L27.4063 32.5549L32.4796 41.8732L29.0629 53.8835L22.6436 56.3684" stroke="#FFF200"/>
<path d="M27.7168 24.8931V32.5548L46.1464 34.2114L32.6866 41.8731" stroke="#FFF200"/>
<path d="M59.0886 53.6764L52.9799 40.4236L49.3561 36.5927L46.1465 34.4185" stroke="#FFF200"/>
<path d="M49.356 36.5928L54.2222 38.1458L63.437 46.6359" stroke="#FFF200"/>
</svg>
