<svg width="72" height="72" viewBox="0 0 72 72" fill="none" xmlns="http://www.w3.org/2000/svg">
<rect width="72" height="72" fill="black"/>
<path d="M7.64062 24.7651L15.1172 20.6401L20.6172 21.9292L27.3203 22.7886M27.3203 22.7886L30.1562 27.8589M27.3203 22.7886L39.8672 18.062M30.1562 27.8589L39.8672 25.3667M30.1562 27.8589L30.5859 35.8511M39.8672 25.3667V18.062M39.8672 25.3667L51.2969 20.1245M39.8672 18.062L52.7578 14.2808M52.7578 14.2808L51.2969 20.1245M52.7578 14.2808L62.5547 13.3354L51.2969 20.1245M51.2969 20.1245L56.8828 28.9761L64.1875 32.4995L64.7891 31.2104M30.5859 35.8511L34.9688 56.2183V58.1089M30.5859 35.8511L37.9766 41.0073L49.0625 44.5308L49.9219 42.4683" stroke="#FFF200"/>
</svg>
